<svg id="Слой_1" data-name="Слой 1" xmlns="http://www.w3.org/2000/svg" viewBox="0 0 749.88 521.22">
    <defs>
        <style>.cls-1{fill:#344086;}</style>
    </defs>
    <path class="cls-1"
          d="M419.66,186l-22.8-7.5L49.3,64.07C43,62,35.07,55.72,31.61,50.1L13.93,21.41c-3.46-5.62-1.15-8.55,5.12-6.51L404,140a101.61,101.61,0,0,0,71.07-3.2A207.51,207.51,0,0,1,759,284.85l1,4.52c.8,5.05-3.67,7.49-9.94,5.43Z"
          transform="translate(-12.32 -14.25)"/>
    <path class="cls-1"
          d="M751.73,336.59a16,16,0,0,1,10.43,15.71s0,.58-1,6.73A201.43,201.43,0,0,1,757,379.55a206.17,206.17,0,0,1-33.82,71.32,208.82,208.82,0,0,1-68.78,59.81c-18.62,10.06-48.85,18.2-48.85,18.2L594,532l-11.89,1.65A217.84,217.84,0,0,1,556,535.47a206.46,206.46,0,0,1-103.93-27.86,50.77,50.77,0,0,0-44.79-3.06h0c-5.35,2.2-14.86,2.31-21.13.25l-82-27c-6.27-2.06-14.23-8.35-17.69-14l-19.28-31.27c-3.46-5.62-1.16-8.53,5.11-6.47l120.6,39.71,22.8,7.5,26.1,8.61c6.27,2.06,16.39,1.7,22.5-.81l33.48-13.78c6.11-2.51,6-6.25-.3-8.31l-117.83-38.8-22.8-7.5-116.4-38.34c-6.27-2.06-14.23-8.35-17.69-14L203.5,329.13c-3.46-5.62-1.16-8.53,5.11-6.47L341.4,366.39l22.8,7.5,189,62.23c6.27,2.06,16.39,1.7,22.5-.81l29.15-12c6.11-2.51,6-6.3-.26-8.44L359.86,331.37c-6.25-2.14-16.49-5.57-22.76-7.63L176.74,270.93c-6.27-2.06-14.23-8.35-17.69-14l-19.28-31.28c-3.46-5.62-1.16-8.53,5.11-6.47L341,283.81l22.8,7.5,300.71,99c6.27,2.06,16.39,1.7,22.5-.81l33.47-13.77c6.11-2.51,6-6.25-.3-8.31L375.05,253.77l-22.8-7.5L113,167.5c-6.27-2.06-14.23-8.35-17.69-14L76.05,122.25c-3.46-5.62-1.16-8.53,5.11-6.47L370.62,211.1l22.8,7.5Z"
          transform="translate(-12.32 -14.25)"/>
</svg>
